<svg xmlns="http://www.w3.org/2000/svg" xmlns:xlink="http://www.w3.org/1999/xlink" width="1080" zoomAndPan="magnify" viewBox="0 0 810 809.999993" height="1080" preserveAspectRatio="xMidYMid meet" version="1.0"><defs><g/><clipPath id="610a0f9961"><path d="M 0 302.042969 L 327 302.042969 L 327 508 L 0 508 Z M 0 302.042969 " clip-rule="nonzero"/></clipPath></defs><g clip-path="url(#610a0f9961)"><path fill="#f5f5f3" d="M 323.265625 354.675781 L 319.890625 341.832031 L 320 355.144531 C 320.035156 359.769531 319.714844 364.363281 318.996094 368.921875 C 318.636719 371.179688 318.207031 373.441406 317.632812 375.703125 C 317.382812 376.8125 317.058594 377.925781 316.769531 379.039062 L 316.269531 380.6875 L 316.019531 381.515625 L 315.730469 382.339844 C 314.257812 386.679688 312.464844 390.949219 310.277344 394.96875 C 309.488281 396.441406 308.664062 397.875 307.765625 399.273438 C 307.800781 398.878906 307.835938 398.519531 307.871094 398.125 L 308.015625 396.441406 L 308.125 394.753906 C 308.410156 390.269531 308.484375 385.785156 308.230469 381.335938 C 307.765625 372.363281 306.222656 363.503906 303.675781 354.890625 C 303.351562 353.816406 302.992188 352.773438 302.632812 351.699219 L 302.097656 350.082031 L 301.523438 348.503906 C 301.128906 347.464844 300.769531 346.386719 300.339844 345.347656 L 299.046875 342.261719 C 297.253906 338.171875 295.207031 334.152344 292.949219 330.3125 C 288.425781 322.601562 283.007812 315.425781 276.765625 309.039062 L 270.019531 302.042969 L 274.363281 310.832031 C 275.761719 313.628906 277.054688 316.535156 278.238281 319.441406 C 279.386719 322.386719 280.425781 325.363281 281.324219 328.375 C 282.253906 331.390625 282.972656 334.441406 283.65625 337.527344 C 284.265625 340.613281 284.804688 343.734375 285.125 346.855469 C 285.808594 353.132812 285.988281 359.449219 285.484375 365.726562 C 285.234375 368.921875 284.875 372.113281 284.335938 375.269531 C 283.796875 373.511719 283.1875 371.753906 282.507812 370.03125 L 279.421875 362.320312 L 278.453125 370.5 C 277.804688 375.128906 277.015625 379.71875 275.90625 384.242188 C 275.367188 386.5 274.792969 388.761719 274.074219 390.984375 C 273.753906 392.097656 273.394531 393.210938 273.035156 394.324219 C 272.640625 395.433594 272.28125 396.546875 271.886719 397.625 C 270.273438 402 268.476562 406.304688 266.324219 410.503906 C 265.285156 412.585938 264.171875 414.667969 262.988281 416.675781 C 262.414062 417.679688 261.804688 418.683594 261.160156 419.6875 L 260.871094 420.121094 C 260.621094 418.578125 260.296875 417.035156 259.9375 415.527344 L 258.828125 410.933594 L 256.566406 415.167969 C 253.085938 421.699219 248.960938 427.871094 244.042969 433.25 C 242.824219 434.578125 241.53125 435.90625 240.207031 437.125 C 238.878906 438.347656 237.476562 439.496094 236.042969 440.605469 C 233.136719 442.796875 230.015625 444.804688 226.859375 446.777344 L 222.085938 449.792969 C 221.296875 450.292969 220.472656 450.832031 219.683594 451.335938 C 218.894531 451.835938 218.140625 452.339844 217.351562 452.839844 C 214.191406 454.816406 210.929688 456.714844 207.769531 458.832031 C 206.15625 459.875 204.613281 460.949219 203.035156 462.097656 C 201.492188 463.28125 200.019531 464.574219 198.65625 466.007812 C 197.292969 467.445312 196.109375 469.023438 195.070312 470.746094 C 194.207031 472.253906 193.527344 473.832031 193.058594 475.480469 L 190.585938 475.160156 C 189.578125 475.050781 188.609375 474.871094 187.605469 474.726562 C 186.816406 474.621094 186.0625 474.476562 185.238281 474.332031 C 185.09375 473.796875 184.878906 473.292969 184.628906 472.789062 C 184.988281 472.789062 185.347656 472.789062 185.703125 472.789062 C 186.316406 472.789062 186.890625 472.71875 187.460938 472.648438 C 188.648438 472.46875 189.796875 472.179688 190.90625 471.785156 L 193.597656 470.851562 L 190.800781 470.421875 L 187.679688 469.921875 L 186.097656 469.667969 C 185.703125 469.597656 185.273438 469.5625 184.878906 469.488281 C 185.777344 469.203125 186.636719 468.84375 187.460938 468.414062 C 189.832031 467.265625 191.910156 465.648438 193.667969 463.714844 L 194.925781 462.3125 L 193.132812 462.816406 C 191.195312 463.355469 189.148438 463.640625 187.140625 463.675781 C 186.136719 463.714844 185.09375 463.640625 184.089844 463.535156 C 183.585938 463.496094 183.085938 463.390625 182.582031 463.316406 C 182.082031 463.210938 181.578125 463.101562 181.078125 462.960938 C 179.460938 462.566406 177.953125 461.882812 176.484375 461.09375 L 178.851562 458.078125 L 175.265625 460.375 C 174.472656 459.875 173.683594 459.371094 172.933594 458.796875 C 172.285156 458.296875 171.640625 457.792969 171.03125 457.21875 C 171.496094 456.429688 171.925781 455.605469 172.25 454.777344 C 172.679688 453.738281 172.96875 452.664062 173.21875 451.550781 L 174.511719 445.019531 L 169.917969 449.792969 C 168.878906 450.902344 167.730469 451.910156 166.472656 452.804688 C 165.863281 453.273438 165.21875 453.703125 164.570312 454.097656 C 163.925781 454.492188 163.246094 454.886719 162.527344 455.210938 C 161.128906 455.890625 159.65625 456.5 158.113281 456.96875 C 156.570312 457.433594 154.957031 457.792969 153.304688 458.117188 C 154.957031 458.582031 156.679688 458.761719 158.402344 458.726562 C 160.121094 458.691406 161.882812 458.402344 163.566406 457.902344 C 164.679688 457.578125 165.757812 457.148438 166.832031 456.644531 C 166.546875 457.039062 166.222656 457.46875 165.898438 457.828125 C 165.757812 458.007812 165.613281 458.152344 165.433594 458.332031 C 165.289062 458.511719 165.109375 458.652344 164.964844 458.796875 C 164.789062 458.941406 164.644531 459.121094 164.5 459.265625 C 164.320312 459.40625 164.140625 459.550781 163.996094 459.695312 C 163.316406 460.269531 162.5625 460.769531 161.738281 461.238281 C 160.949219 461.703125 160.085938 462.0625 159.191406 462.421875 C 157.394531 463.066406 155.457031 463.535156 153.414062 463.75 C 155.351562 464.464844 157.503906 464.644531 159.65625 464.429688 C 161.773438 464.179688 163.960938 463.535156 165.863281 462.347656 C 166.113281 462.207031 166.328125 462.0625 166.582031 461.917969 C 166.796875 461.777344 167.011719 461.597656 167.261719 461.417969 C 167.476562 461.238281 167.730469 461.09375 167.945312 460.878906 C 168.160156 460.699219 168.375 460.519531 168.554688 460.304688 C 169.378906 459.515625 170.097656 458.652344 170.742188 457.722656 C 170.816406 457.648438 170.851562 457.542969 170.886719 457.46875 C 171.460938 458.042969 172.105469 458.582031 172.714844 459.085938 C 173.398438 459.621094 174.117188 460.125 174.832031 460.628906 L 169.234375 464.214844 C 168.265625 464.859375 167.226562 465.398438 166.152344 465.867188 C 165.074219 466.332031 163.960938 466.726562 162.8125 467.050781 C 161.664062 467.335938 160.445312 467.550781 159.226562 467.660156 C 157.96875 467.765625 156.714844 467.765625 155.351562 467.695312 C 156.464844 468.484375 157.71875 469.058594 159.046875 469.417969 C 160.375 469.777344 161.773438 469.957031 163.207031 469.921875 C 163.207031 469.921875 163.207031 469.921875 163.246094 469.921875 C 162.957031 470.136719 162.632812 470.386719 162.347656 470.601562 C 161.128906 471.460938 159.871094 472.289062 158.542969 473.003906 C 157.214844 473.757812 155.78125 474.441406 154.3125 475.160156 C 155.925781 475.375 157.613281 475.265625 159.226562 474.980469 C 160.839844 474.691406 162.457031 474.152344 163.996094 473.4375 C 165.503906 472.71875 166.976562 471.820312 168.265625 470.746094 C 169.59375 469.667969 170.777344 468.449219 171.820312 467.121094 L 176.234375 461.488281 C 177.703125 462.386719 179.28125 463.140625 180.96875 463.605469 C 181.472656 463.75 181.972656 463.890625 182.511719 464 C 183.015625 464.109375 183.550781 464.214844 184.054688 464.285156 C 185.09375 464.429688 186.136719 464.539062 187.210938 464.539062 C 188.683594 464.574219 190.152344 464.464844 191.625 464.214844 C 190.226562 465.433594 188.648438 466.441406 186.996094 467.191406 C 184.773438 468.199219 182.332031 468.808594 179.929688 468.914062 L 176.234375 469.09375 L 179.75 470.421875 C 181.039062 470.925781 182.222656 471.820312 182.941406 473.003906 C 183.300781 473.578125 183.585938 474.226562 183.730469 474.90625 C 183.839844 475.375 183.910156 475.875 183.910156 476.34375 C 180.644531 477.167969 177.203125 477.097656 174.007812 476.128906 L 170.203125 474.980469 L 172.96875 477.847656 C 174.007812 478.925781 174.691406 480.289062 174.941406 481.722656 C 175.046875 482.441406 175.085938 483.195312 174.976562 483.914062 C 174.90625 484.449219 174.761719 484.953125 174.582031 485.457031 C 172.789062 485.777344 170.921875 485.8125 169.09375 485.597656 C 167.082031 485.347656 165.144531 484.738281 163.316406 483.804688 L 159.980469 482.082031 L 161.558594 485.5625 C 161.882812 486.246094 162.097656 486.960938 162.203125 487.714844 C 162.3125 488.46875 162.347656 489.1875 162.277344 489.941406 C 162.203125 490.695312 162.023438 491.410156 161.738281 492.09375 C 161.628906 492.378906 161.488281 492.667969 161.378906 492.917969 C 160.589844 492.453125 159.835938 491.914062 159.117188 491.304688 C 158.078125 490.40625 157.179688 489.402344 156.390625 488.289062 L 154.5625 485.742188 L 153.519531 488.757812 C 153.054688 490.15625 152.445312 491.519531 151.726562 492.8125 C 151.152344 493.851562 150.507812 494.820312 149.824219 495.789062 C 149.359375 495.71875 148.894531 495.609375 148.460938 495.429688 C 147.78125 495.179688 147.097656 494.820312 146.5625 494.316406 C 145.988281 493.851562 145.484375 493.277344 145.125 492.632812 C 144.730469 491.984375 144.445312 491.269531 144.300781 490.550781 L 143.222656 485.527344 L 141.324219 490.226562 C 140.820312 491.449219 140.210938 492.59375 139.457031 493.707031 C 138.917969 494.496094 138.34375 495.214844 137.699219 495.933594 C 137.449219 495.71875 137.195312 495.429688 136.980469 495.179688 C 136.550781 494.605469 136.191406 493.957031 136.046875 493.242188 C 135.867188 492.558594 135.832031 491.804688 135.976562 491.054688 C 136.046875 490.695312 136.121094 490.300781 136.261719 489.941406 C 136.335938 489.761719 136.40625 489.582031 136.480469 489.367188 L 136.621094 489.078125 L 136.695312 488.898438 L 136.730469 488.792969 L 136.765625 488.71875 L 136.800781 488.613281 L 138.199219 484.308594 L 135.042969 487.5 C 134.613281 487.929688 134.289062 488.324219 133.96875 488.683594 C 133.644531 489.042969 133.285156 489.402344 132.925781 489.6875 C 132.210938 490.335938 131.417969 490.800781 130.523438 491.195312 C 130.09375 491.375 129.625 491.554688 129.160156 491.664062 C 128.691406 491.804688 128.191406 491.878906 127.722656 491.949219 C 126.792969 492.09375 125.824219 492.09375 124.855469 491.984375 C 124.566406 491.734375 124.28125 491.410156 124.066406 491.054688 C 123.8125 490.65625 123.632812 490.191406 123.5625 489.726562 C 123.492188 489.257812 123.527344 488.757812 123.597656 488.289062 C 123.667969 487.929688 123.742188 487.574219 123.847656 487.214844 C 123.886719 487.25 123.957031 487.285156 123.992188 487.320312 C 125.355469 488.074219 126.933594 488.542969 128.585938 488.46875 C 130.199219 488.398438 131.8125 487.714844 133.070312 486.675781 C 133.394531 486.425781 133.679688 486.136719 133.96875 485.851562 C 134.253906 485.527344 134.503906 485.203125 134.757812 484.84375 C 135.222656 484.128906 135.472656 483.339844 135.761719 482.65625 C 136.011719 481.976562 136.261719 481.328125 136.550781 480.683594 C 136.835938 480.039062 137.160156 479.429688 137.484375 478.816406 C 138.164062 477.597656 138.988281 476.449219 139.886719 475.300781 C 140.820312 474.152344 141.679688 473.078125 142.648438 472 C 143.117188 471.460938 143.65625 470.925781 144.121094 470.171875 C 144.371094 469.8125 144.550781 469.382812 144.660156 468.953125 C 144.730469 468.734375 144.730469 468.519531 144.765625 468.304688 C 144.800781 468.125 144.800781 467.910156 144.839844 467.730469 C 144.910156 466.941406 144.875 466.152344 144.730469 465.363281 C 144.585938 464.574219 144.300781 463.785156 143.726562 463.140625 C 143.1875 462.492188 142.398438 462.132812 141.644531 461.953125 C 140.890625 461.777344 140.101562 461.703125 139.386719 461.703125 C 137.878906 461.667969 136.40625 461.847656 134.9375 461.917969 C 133.464844 462.027344 131.992188 462.277344 130.773438 461.703125 C 130.164062 461.453125 129.589844 461.058594 129.125 460.554688 C 128.871094 460.304688 128.65625 460.015625 128.441406 459.765625 C 128.226562 459.480469 128.046875 459.191406 127.867188 458.90625 C 127.507812 458.332031 127.292969 457.683594 127.007812 456.96875 C 126.753906 456.285156 126.46875 455.53125 126.109375 454.851562 C 125.714844 454.097656 125.285156 453.414062 124.746094 452.769531 C 125.140625 452.160156 125.605469 451.585938 126.074219 451.121094 C 126.753906 450.472656 127.542969 450.078125 128.296875 449.933594 C 128.65625 449.898438 129.050781 449.898438 129.519531 449.933594 C 129.984375 449.972656 130.523438 450.042969 131.097656 450.042969 C 131.671875 450.042969 132.28125 449.972656 132.890625 449.863281 C 133.5 449.757812 134.039062 449.578125 134.613281 449.324219 C 135.1875 449.074219 135.726562 448.789062 136.191406 448.429688 C 136.695312 448.105469 137.125 447.746094 137.519531 447.386719 C 138.34375 446.671875 139.0625 445.988281 139.816406 445.199219 C 140.820312 444.160156 141.679688 443.011719 142.433594 441.828125 C 142.433594 441.863281 142.46875 441.863281 142.46875 441.898438 C 142.757812 442.617188 142.902344 443.40625 142.972656 444.195312 C 143.007812 444.984375 142.9375 445.808594 142.757812 446.632812 C 142.613281 447.246094 142.433594 447.890625 142.21875 448.5 C 142.148438 448.535156 142.039062 448.570312 141.96875 448.570312 C 141.679688 448.679688 141.359375 448.824219 141.070312 448.964844 C 140.785156 449.109375 140.460938 449.289062 140.210938 449.46875 C 139.671875 449.828125 139.167969 450.222656 138.703125 450.617188 C 137.769531 451.40625 136.980469 452.195312 136.085938 452.839844 C 135.1875 453.523438 134.253906 454.027344 133.179688 454.457031 C 132.101562 454.886719 130.988281 455.246094 129.804688 455.53125 C 130.988281 455.675781 132.171875 455.640625 133.355469 455.460938 C 134.074219 456.535156 135.042969 457.46875 136.300781 458.042969 C 136.910156 458.332031 137.589844 458.511719 138.308594 458.582031 C 139.027344 458.652344 139.742188 458.582031 140.425781 458.402344 C 141.789062 458.042969 143.042969 457.328125 144.050781 456.359375 C 144.550781 455.890625 145.019531 455.351562 145.414062 454.742188 C 145.734375 454.242188 146.023438 453.738281 146.238281 453.199219 C 146.273438 453.199219 146.308594 453.199219 146.34375 453.199219 C 147.566406 453.34375 148.785156 453.308594 149.96875 453.058594 C 151.152344 452.804688 152.300781 452.339844 153.234375 451.585938 C 152.050781 451.765625 150.9375 451.910156 149.824219 451.910156 C 148.714844 451.945312 147.601562 451.910156 146.523438 451.765625 C 145.988281 451.695312 145.484375 451.585938 144.910156 451.441406 C 144.335938 451.296875 143.761719 451.191406 143.152344 451.121094 C 142.648438 451.046875 142.113281 451.011719 141.574219 451.011719 C 141.679688 450.941406 141.824219 450.867188 141.96875 450.832031 C 142.21875 450.726562 142.46875 450.617188 142.722656 450.507812 C 144.730469 449.757812 146.992188 449.433594 149.289062 449.398438 C 150.4375 449.359375 151.691406 449.359375 152.910156 449.109375 C 153.519531 448.964844 154.132812 448.789062 154.667969 448.5 C 155.207031 448.214844 155.746094 447.820312 156.105469 447.351562 C 155.0625 447.925781 153.914062 448.105469 152.804688 448.070312 C 151.691406 448.035156 150.542969 447.855469 149.359375 447.710938 C 147.136719 447.460938 144.800781 447.566406 142.578125 448.285156 C 142.9375 447.820312 143.261719 447.351562 143.546875 446.8125 C 143.976562 446.023438 144.300781 445.128906 144.445312 444.160156 C 144.625 443.226562 144.550781 442.257812 144.445312 441.289062 C 144.300781 440.320312 143.976562 439.351562 143.511719 438.453125 L 143.402344 438.238281 C 144.445312 438.132812 145.484375 438.023438 146.523438 437.84375 C 147.816406 437.628906 149.109375 437.339844 150.398438 436.984375 C 152.984375 436.265625 155.496094 435.226562 157.789062 433.753906 C 160.085938 432.320312 162.167969 430.453125 163.855469 428.371094 C 164.714844 427.332031 165.46875 426.21875 166.152344 425.035156 C 166.1875 425.214844 166.257812 425.429688 166.292969 425.609375 C 166.472656 426.328125 166.617188 427.082031 166.761719 427.796875 C 166.832031 428.15625 166.867188 428.515625 166.941406 428.910156 C 166.976562 429.269531 167.011719 429.628906 167.011719 429.988281 C 167.046875 431.457031 166.902344 433 166.6875 434.507812 C 166.546875 435.582031 166.367188 436.660156 166.152344 437.738281 C 165.613281 438.273438 165.003906 438.8125 164.394531 439.316406 C 163.496094 440.03125 162.527344 440.679688 161.488281 441.359375 C 162.707031 441.433594 163.960938 441.253906 165.183594 440.929688 C 166.402344 440.570312 167.585938 440.03125 168.664062 439.386719 C 169.019531 439.171875 169.34375 438.921875 169.667969 438.667969 C 169.59375 439.027344 169.488281 439.386719 169.378906 439.746094 C 169.164062 440.464844 168.914062 441.179688 168.589844 441.898438 C 167.980469 443.296875 167.15625 444.625 166.152344 445.917969 C 165.144531 447.207031 163.925781 448.390625 162.5625 449.578125 C 164.394531 449.398438 166.152344 448.75 167.730469 447.710938 C 169.308594 446.707031 170.742188 445.34375 171.820312 443.726562 C 172.105469 443.332031 172.320312 442.902344 172.574219 442.472656 C 172.789062 442.042969 173.003906 441.613281 173.183594 441.144531 C 173.578125 440.246094 173.863281 439.277344 174.042969 438.347656 C 174.4375 436.410156 174.476562 434.4375 174.117188 432.5 L 172.96875 426.039062 L 170.203125 431.851562 C 169.988281 432.320312 169.773438 432.785156 169.523438 433.25 C 169.273438 433.71875 169.019531 434.148438 168.699219 434.578125 C 168.125 435.441406 167.476562 436.300781 166.726562 437.089844 C 166.6875 437.125 166.652344 437.164062 166.652344 437.164062 C 166.6875 437.089844 166.726562 437.019531 166.726562 436.945312 C 167.011719 436.230469 167.261719 435.476562 167.515625 434.722656 C 167.980469 433.214844 168.375 431.707031 168.589844 430.058594 C 168.769531 428.40625 168.734375 426.792969 168.554688 425.214844 C 168.484375 424.425781 168.375 423.636719 168.269531 422.847656 C 168.160156 422.058594 168.050781 421.304688 167.945312 420.585938 L 167.441406 416.171875 L 165.144531 420.191406 C 162.777344 424.355469 159.511719 427.871094 155.53125 430.128906 C 153.519531 431.277344 151.367188 432.140625 149.109375 432.785156 C 147.351562 433.289062 145.519531 433.644531 143.691406 433.898438 C 143.796875 433.789062 143.90625 433.71875 144.050781 433.609375 C 144.800781 432.929688 145.519531 432.210938 146.167969 431.421875 C 147.457031 429.84375 148.535156 428.011719 149.25 426.039062 C 149.644531 425.070312 149.933594 424.066406 150.183594 423.027344 C 150.472656 421.984375 150.613281 420.910156 150.6875 419.867188 C 150.832031 417.714844 150.613281 415.527344 150.003906 413.445312 L 148.175781 407.097656 L 145.988281 413.445312 C 145.339844 415.3125 144.585938 417.105469 143.582031 418.648438 C 143.082031 419.4375 142.507812 420.15625 141.894531 420.800781 C 141.25 421.449219 140.605469 422.019531 139.78125 422.558594 C 138.992188 423.097656 138.023438 423.636719 137.089844 424.316406 C 136.15625 425 135.257812 425.789062 134.503906 426.6875 C 133 428.445312 131.957031 430.523438 131.527344 432.675781 C 132.925781 430.992188 134.433594 429.519531 136.085938 428.40625 C 136.300781 428.265625 136.480469 428.121094 136.695312 428.011719 C 136.910156 427.871094 137.125 427.761719 137.339844 427.65625 C 137.769531 427.4375 138.199219 427.222656 138.667969 427.007812 C 139.5625 426.613281 140.53125 426.253906 141.609375 425.753906 C 142.648438 425.25 143.726562 424.570312 144.660156 423.78125 C 145.59375 422.988281 146.417969 422.058594 147.097656 421.089844 C 147.097656 421.089844 147.097656 421.050781 147.136719 421.050781 C 147.136719 421.554688 147.136719 422.09375 147.097656 422.59375 C 147.027344 423.492188 146.882812 424.425781 146.703125 425.324219 C 146.308594 427.117188 145.699219 428.910156 144.875 430.597656 C 144.445312 431.457031 143.976562 432.28125 143.4375 433.109375 C 143.222656 433.46875 142.972656 433.789062 142.722656 434.113281 C 142.542969 434.148438 142.363281 434.148438 142.183594 434.183594 L 140.355469 434.398438 C 139.742188 434.472656 139.167969 434.507812 138.558594 434.542969 C 137.375 434.613281 136.15625 434.652344 134.863281 434.6875 C 133.574219 434.722656 132.171875 434.867188 130.808594 435.1875 C 129.878906 435.40625 128.980469 435.691406 128.15625 436.050781 C 128.585938 435.226562 128.945312 434.363281 129.195312 433.46875 C 129.589844 432.140625 129.769531 430.8125 129.984375 429.484375 C 130.199219 428.121094 130.234375 426.6875 130.128906 425.285156 C 130.019531 423.886719 129.769531 422.488281 129.375 421.089844 L 126.972656 412.835938 L 125.824219 421.589844 C 125.75 422.238281 125.605469 422.882812 125.429688 423.492188 C 125.25 424.101562 125.035156 424.710938 124.78125 425.285156 C 124.53125 425.859375 124.242188 426.433594 123.921875 426.9375 C 123.597656 427.4375 123.238281 427.90625 122.808594 428.40625 C 121.949219 429.375 120.871094 430.382812 119.867188 431.421875 C 119.363281 431.925781 118.863281 432.425781 118.359375 432.894531 C 117.859375 433.359375 117.355469 433.824219 116.78125 434.292969 C 116.492188 434.542969 116.171875 434.832031 115.847656 435.152344 C 115.523438 435.476562 115.203125 435.871094 114.953125 436.230469 C 114.664062 436.589844 114.484375 436.945312 114.269531 437.269531 C 114.089844 437.59375 113.875 437.953125 113.695312 438.308594 C 113.335938 439.027344 113.015625 439.851562 112.761719 440.679688 C 112.546875 441.503906 112.441406 442.402344 112.476562 443.261719 C 112.511719 443.691406 112.546875 444.121094 112.65625 444.554688 C 112.761719 444.984375 112.90625 445.378906 113.015625 445.773438 C 113.300781 446.527344 113.695312 447.28125 114.160156 447.925781 C 114.808594 448.859375 115.703125 449.613281 116.636719 450.078125 C 115.167969 450.113281 113.660156 450.292969 112.261719 450.652344 C 110.898438 450.976562 109.496094 451.40625 108.171875 452.125 C 107.453125 451.585938 106.699219 451.082031 105.980469 450.546875 C 103.578125 448.859375 101.136719 447.246094 98.664062 445.738281 C 97.441406 444.949219 96.1875 444.230469 95.003906 443.441406 C 93.820312 442.6875 92.671875 441.898438 91.558594 441.074219 C 87.109375 437.738281 83.164062 433.71875 79.644531 429.304688 L 78.355469 427.617188 L 77.132812 425.894531 C 76.703125 425.324219 76.308594 424.75 75.914062 424.136719 C 75.519531 423.5625 75.125 422.988281 74.730469 422.378906 C 73.1875 420.011719 71.789062 417.535156 70.425781 415.023438 L 67.984375 410.539062 L 66.800781 415.382812 C 66.441406 416.820312 66.15625 418.253906 65.90625 419.6875 C 61.492188 412.945312 57.832031 405.769531 54.996094 398.234375 C 54.136719 396.007812 53.382812 393.710938 52.664062 391.417969 C 51.984375 389.121094 51.335938 386.824219 50.800781 384.492188 C 49.722656 379.828125 48.898438 375.089844 48.429688 370.355469 L 47.605469 361.816406 L 44.378906 369.925781 C 43.804688 371.324219 43.335938 372.722656 42.871094 374.160156 C 42.367188 371.074219 41.972656 367.953125 41.757812 364.832031 C 41.328125 358.660156 41.433594 352.414062 42.117188 346.246094 C 42.261719 344.703125 42.511719 343.160156 42.726562 341.617188 C 42.835938 340.863281 42.976562 340.074219 43.121094 339.320312 C 43.265625 338.566406 43.371094 337.777344 43.550781 337.023438 C 43.875 335.515625 44.199219 333.972656 44.59375 332.46875 C 44.949219 330.960938 45.382812 329.453125 45.8125 327.980469 C 46.710938 325.003906 47.714844 322.0625 48.824219 319.15625 C 49.972656 316.25 51.230469 313.414062 52.59375 310.617188 L 56.863281 302.042969 L 49.9375 309.109375 C 43.730469 315.496094 38.3125 322.671875 33.757812 330.386719 C 31.496094 334.261719 29.488281 338.242188 27.65625 342.332031 L 26.367188 345.417969 C 25.933594 346.460938 25.578125 347.5 25.183594 348.578125 L 24.609375 350.15625 L 24.070312 351.769531 C 23.710938 352.847656 23.351562 353.886719 23.027344 354.964844 C 20.480469 363.539062 18.9375 372.4375 18.472656 381.40625 C 18.257812 385.890625 18.292969 390.375 18.578125 394.824219 L 18.6875 396.511719 L 18.832031 398.199219 C 18.867188 398.554688 18.902344 398.949219 18.9375 399.308594 C 18.078125 397.910156 17.214844 396.476562 16.425781 395.003906 C 14.238281 390.984375 12.445312 386.714844 10.972656 382.375 L 10.6875 381.550781 L 10.433594 380.722656 L 9.933594 379.074219 C 9.644531 377.960938 9.324219 376.847656 9.070312 375.738281 C 8.535156 373.511719 8.066406 371.253906 7.707031 368.957031 C 6.992188 364.398438 6.667969 359.808594 6.703125 355.179688 L 6.8125 341.796875 L 3.4375 354.675781 C 1.179688 363.71875 0.0664062 373.082031 0.136719 382.375 C 0.175781 387.039062 0.53125 391.667969 1.179688 396.296875 C 1.824219 400.886719 2.828125 405.445312 4.050781 409.929688 L 5.054688 413.265625 C 5.195312 413.839844 5.414062 414.378906 5.589844 414.917969 L 6.164062 416.566406 L 6.738281 418.21875 C 6.957031 418.757812 7.171875 419.292969 7.386719 419.832031 L 8.03125 421.449219 C 8.246094 421.984375 8.460938 422.523438 8.714844 423.0625 C 10.542969 427.257812 12.695312 431.351562 15.0625 435.332031 C 19.835938 443.261719 25.613281 450.546875 32.25 456.894531 C 30.671875 455.246094 29.128906 453.523438 27.65625 451.765625 C 26.941406 450.867188 26.1875 450.007812 25.503906 449.074219 L 24.429688 447.710938 L 23.386719 446.347656 C 20.660156 442.652344 18.183594 438.8125 15.960938 434.792969 C 13.734375 430.777344 11.761719 426.648438 10.113281 422.417969 C 8.460938 418.144531 7.027344 413.839844 5.914062 409.429688 C 4.839844 405.015625 3.976562 400.53125 3.476562 396.007812 C 2.972656 391.488281 2.722656 386.96875 2.792969 382.410156 C 2.863281 377.890625 3.222656 373.332031 3.871094 368.847656 L 4.011719 367.988281 C 4.085938 368.488281 4.121094 368.957031 4.191406 369.457031 C 4.515625 371.828125 4.945312 374.195312 5.484375 376.5625 C 5.734375 377.746094 6.058594 378.894531 6.34375 380.078125 L 6.847656 381.800781 L 7.097656 382.660156 L 7.386719 383.523438 C 8.855469 388.117188 10.6875 392.566406 12.910156 396.835938 C 15.136719 401.105469 17.753906 405.195312 20.660156 409.03125 L 25.828125 415.851562 L 24.390625 407.382812 C 22.957031 398.878906 22.382812 390.234375 22.886719 381.621094 C 23.136719 377.316406 23.601562 373.046875 24.320312 368.777344 C 24.464844 367.699219 24.714844 366.660156 24.894531 365.582031 C 25.003906 365.046875 25.109375 364.542969 25.21875 364.003906 L 25.578125 362.425781 C 25.828125 361.386719 26.042969 360.308594 26.367188 359.304688 L 27.191406 356.183594 C 27.476562 355.144531 27.835938 354.136719 28.160156 353.097656 L 28.625 351.554688 L 29.164062 350.046875 C 29.523438 349.042969 29.882812 348.003906 30.277344 347 L 31.496094 343.984375 C 33.183594 340 35.046875 336.125 37.128906 332.359375 C 39.605469 328.054688 42.261719 323.929688 45.167969 319.980469 C 44.269531 322.386719 43.445312 324.824219 42.726562 327.300781 C 42.296875 328.84375 41.828125 330.386719 41.472656 331.929688 C 41.074219 333.472656 40.753906 335.050781 40.394531 336.59375 C 40.214844 337.382812 40.105469 338.171875 39.964844 338.960938 C 39.820312 339.75 39.675781 340.539062 39.570312 341.328125 C 39.355469 342.90625 39.101562 344.488281 38.960938 346.066406 C 38.277344 352.414062 38.132812 358.839844 38.601562 365.226562 C 38.996094 370.605469 39.820312 375.953125 41.003906 381.226562 C 40.359375 384.167969 39.890625 387.148438 39.496094 390.125 C 38.671875 396.941406 38.386719 403.832031 38.78125 410.683594 C 38.816406 411.542969 38.886719 412.40625 38.960938 413.230469 C 39.03125 414.09375 39.101562 414.917969 39.175781 415.777344 L 39.496094 418.324219 L 39.640625 419.582031 L 39.820312 420.835938 L 40.214844 423.347656 L 40.679688 425.859375 C 40.753906 426.289062 40.824219 426.6875 40.933594 427.117188 L 41.21875 428.371094 C 41.398438 429.195312 41.578125 430.023438 41.792969 430.847656 C 42.582031 434.148438 43.550781 437.414062 44.628906 440.644531 C 45.703125 443.871094 46.925781 447.027344 48.25 450.152344 C 46.027344 443.765625 44.378906 437.199219 43.191406 430.5625 C 43.050781 429.734375 42.941406 428.910156 42.796875 428.085938 L 42.617188 426.828125 C 42.546875 426.398438 42.511719 426.003906 42.476562 425.574219 L 42.152344 423.0625 L 41.9375 420.550781 L 41.757812 419.367188 L 41.6875 418.109375 L 41.542969 415.597656 C 41.507812 414.773438 41.507812 413.914062 41.472656 413.085938 C 41.472656 412.261719 41.433594 411.402344 41.433594 410.574219 C 41.433594 403.902344 42.082031 397.230469 43.230469 390.699219 C 43.875 387.148438 44.734375 383.628906 45.703125 380.152344 C 46.097656 381.980469 46.492188 383.773438 46.960938 385.605469 C 47.605469 388.007812 48.289062 390.375 49.078125 392.742188 C 49.867188 395.074219 50.691406 397.410156 51.660156 399.703125 C 55.140625 408.386719 59.734375 416.566406 65.257812 424.101562 C 65.1875 424.890625 65.113281 425.679688 65.078125 426.507812 C 64.972656 428.335938 64.972656 430.203125 65.042969 432.03125 C 65.113281 433.863281 65.292969 435.691406 65.546875 437.519531 C 65.6875 438.417969 65.832031 439.316406 66.011719 440.210938 L 66.261719 441.539062 L 66.585938 442.867188 C 67.015625 444.625 67.554688 446.382812 68.128906 448.105469 C 68.738281 449.828125 69.421875 451.515625 70.175781 453.128906 C 70.925781 454.777344 71.789062 456.359375 72.722656 457.902344 C 72.039062 456.25 71.464844 454.5625 70.925781 452.839844 C 70.640625 451.980469 70.425781 451.15625 70.175781 450.292969 C 69.921875 449.433594 69.707031 448.570312 69.527344 447.710938 C 69.132812 445.988281 68.8125 444.230469 68.558594 442.507812 L 68.378906 441.214844 L 68.308594 439.816406 C 68.199219 438.957031 68.164062 438.058594 68.09375 437.199219 C 67.914062 433.683594 68.019531 430.203125 68.414062 426.757812 C 68.632812 425 68.917969 423.277344 69.277344 421.554688 C 71.285156 425.214844 73.546875 428.765625 76.128906 432.101562 C 77.960938 434.472656 79.933594 436.730469 82.050781 438.847656 C 84.203125 440.964844 86.464844 442.9375 88.902344 444.695312 C 90.121094 445.558594 91.378906 446.417969 92.671875 447.171875 C 93.925781 447.925781 95.21875 448.679688 96.4375 449.398438 C 98.949219 450.832031 101.425781 452.265625 103.863281 453.773438 C 104.257812 454.027344 104.691406 454.277344 105.085938 454.5625 C 104.402344 455.28125 103.792969 456.105469 103.328125 456.96875 C 102.429688 458.617188 101.925781 460.449219 101.710938 462.277344 C 101.605469 463.175781 101.605469 464.109375 101.640625 465.003906 C 101.675781 465.9375 101.785156 466.796875 102 467.765625 C 102.214844 468.664062 102.5 469.5625 102.894531 470.421875 C 103.289062 471.285156 103.722656 472.074219 104.257812 472.863281 C 105.300781 474.40625 106.589844 475.730469 108.097656 476.84375 L 110.933594 478.960938 L 110.070312 475.515625 C 109.675781 474.226562 109.710938 472.828125 110.25 471.605469 C 110.789062 470.386719 111.828125 469.382812 113.085938 468.664062 C 113.410156 468.484375 113.730469 468.304688 114.089844 468.125 C 114.449219 467.945312 114.773438 467.804688 115.09375 467.695312 C 115.777344 467.445312 116.53125 467.300781 117.285156 467.191406 C 118.824219 466.976562 120.40625 466.871094 121.984375 466.871094 C 123.5625 466.835938 125.140625 466.941406 126.71875 467.085938 C 127.507812 467.15625 128.335938 467.230469 129.125 467.300781 C 129.949219 467.335938 130.738281 467.371094 131.5625 467.410156 C 133.179688 467.445312 134.828125 467.410156 136.40625 467.15625 C 136.835938 467.085938 137.269531 467.015625 137.699219 466.90625 C 137.015625 467.765625 136.441406 468.664062 135.976562 469.667969 C 135.726562 470.242188 135.472656 470.816406 135.292969 471.425781 C 135.113281 472.035156 135.007812 472.648438 134.898438 473.257812 C 134.542969 475.695312 133.5 478.027344 131.921875 479.859375 C 131.527344 480.324219 131.0625 480.753906 130.59375 481.113281 C 130.128906 481.472656 129.589844 481.832031 129.050781 482.117188 C 127.976562 482.691406 126.828125 483.125 125.644531 483.195312 C 124.460938 483.265625 123.273438 482.945312 122.304688 482.261719 C 121.335938 481.617188 120.546875 480.648438 120.046875 479.605469 L 119.292969 478.066406 L 119.363281 479.785156 C 119.398438 481.328125 119.832031 482.835938 120.585938 484.199219 C 121.265625 485.382812 122.234375 486.460938 123.417969 487.179688 C 123.238281 487.535156 123.097656 487.929688 122.988281 488.324219 C 122.84375 488.828125 122.738281 489.367188 122.773438 489.941406 C 122.84375 491.050781 123.3125 492.09375 124.101562 492.917969 C 123.957031 493.386719 123.8125 493.816406 123.707031 494.28125 C 123.527344 494.925781 123.382812 495.609375 123.273438 496.292969 C 123.167969 496.972656 123.058594 497.65625 123.023438 498.335938 C 122.988281 499.019531 122.917969 499.734375 122.878906 500.417969 L 122.808594 501.636719 L 124.101562 501.171875 C 124.496094 501.027344 124.855469 500.882812 125.210938 500.667969 C 125.570312 500.488281 125.929688 500.238281 126.253906 500.023438 C 126.433594 499.914062 126.574219 499.769531 126.753906 499.664062 C 126.898438 499.519531 127.078125 499.375 127.222656 499.234375 C 127.402344 499.089844 127.542969 498.910156 127.6875 498.730469 C 127.6875 498.765625 127.722656 498.765625 127.722656 498.800781 C 128.011719 499.449219 128.335938 500.023438 128.730469 500.597656 L 129.339844 501.492188 L 130.308594 501.0625 C 130.59375 500.917969 130.84375 500.8125 131.097656 500.632812 C 131.347656 500.488281 131.636719 500.308594 131.886719 500.164062 C 132.171875 499.988281 132.425781 499.769531 132.675781 499.554688 C 132.925781 500.164062 133.214844 500.777344 133.5 501.386719 C 133.929688 502.175781 134.433594 502.964844 135.007812 503.683594 C 135.582031 504.398438 136.226562 505.082031 136.910156 505.691406 C 137.589844 506.300781 138.34375 506.875 139.097656 507.414062 L 139.886719 507.953125 L 140.355469 506.945312 C 140.605469 506.445312 140.820312 505.941406 141 505.40625 C 141.179688 504.867188 141.324219 504.363281 141.464844 503.824219 C 141.609375 503.289062 141.71875 502.75 141.824219 502.175781 C 141.859375 501.960938 141.894531 501.746094 141.933594 501.53125 C 142.328125 501.925781 142.792969 502.28125 143.261719 502.570312 L 143.976562 503.035156 L 144.660156 502.570312 C 145.304688 502.101562 145.878906 501.601562 146.382812 500.992188 C 146.847656 501.53125 147.351562 502.03125 147.886719 502.535156 C 148.535156 503.144531 149.25 503.71875 149.96875 504.257812 C 150.6875 504.792969 151.476562 505.296875 152.265625 505.726562 C 153.054688 506.15625 153.878906 506.625 154.707031 507.019531 L 155.351562 507.34375 L 155.816406 506.589844 C 156.390625 505.65625 156.75 504.578125 156.964844 503.503906 C 157.074219 502.964844 157.144531 502.425781 157.144531 501.851562 C 157.144531 501.457031 157.144531 501.0625 157.109375 500.632812 C 157.46875 500.738281 157.863281 500.8125 158.222656 500.882812 L 159.296875 501.0625 L 159.621094 500.128906 C 159.691406 499.914062 159.765625 499.664062 159.835938 499.449219 C 159.90625 499.199219 159.945312 498.980469 160.015625 498.730469 C 160.015625 498.730469 160.015625 498.695312 160.015625 498.695312 L 160.589844 499.160156 C 160.984375 499.449219 161.378906 499.734375 161.808594 499.988281 C 162.671875 500.488281 163.566406 500.957031 164.535156 501.277344 C 165.46875 501.601562 166.472656 501.851562 167.476562 501.996094 C 168.484375 502.140625 169.488281 502.210938 170.527344 502.210938 L 171.101562 502.210938 L 171.316406 501.53125 C 171.496094 500.882812 171.675781 500.238281 171.746094 499.554688 C 171.855469 498.875 171.855469 498.191406 171.855469 497.546875 C 171.855469 496.863281 171.785156 496.183594 171.675781 495.539062 C 171.605469 495.035156 171.496094 494.570312 171.351562 494.101562 C 172.179688 494.066406 173.039062 493.957031 173.828125 493.742188 L 174.691406 493.527344 L 174.761719 492.8125 C 174.832031 492.34375 174.832031 491.878906 174.871094 491.410156 C 174.871094 490.945312 174.871094 490.480469 174.832031 490.011719 C 174.832031 489.976562 174.832031 489.976562 174.832031 489.941406 C 175.441406 489.941406 176.089844 489.90625 176.699219 489.832031 C 177.558594 489.726562 178.421875 489.582031 179.246094 489.332031 C 180.070312 489.078125 180.898438 488.792969 181.6875 488.433594 C 182.476562 488.074219 183.265625 487.644531 184.019531 487.179688 L 184.484375 486.890625 L 184.339844 486.210938 C 184.234375 485.636719 184.054688 485.097656 183.839844 484.558594 C 183.625 484.019531 183.335938 483.519531 183.050781 483.050781 C 182.726562 482.585938 182.402344 482.082031 182.007812 481.6875 C 181.722656 481.402344 181.472656 481.113281 181.148438 480.863281 C 181.867188 480.71875 182.582031 480.46875 183.265625 480.144531 L 183.730469 479.929688 L 183.625 479.605469 C 183.585938 479.5 183.550781 479.355469 183.480469 479.25 C 184.554688 479.25 185.632812 479.25 186.710938 479.210938 C 187.859375 479.140625 189.003906 479.03125 190.117188 478.855469 C 191.265625 478.675781 192.378906 478.460938 193.492188 478.136719 C 194.601562 477.847656 195.714844 477.492188 196.792969 477.097656 L 200.488281 475.804688 L 196.503906 475.660156 C 195.964844 475.625 195.390625 475.589844 194.855469 475.554688 C 195.429688 474.226562 196.144531 473.003906 196.972656 471.820312 C 198.011719 470.386719 199.230469 469.058594 200.558594 467.839844 C 201.886719 466.617188 203.320312 465.542969 204.863281 464.539062 C 206.371094 463.535156 207.984375 462.566406 209.601562 461.667969 C 212.828125 459.835938 216.128906 458.007812 219.429688 456.105469 C 220.257812 455.640625 221.082031 455.136719 221.90625 454.636719 L 224.3125 453.199219 L 229.15625 450.292969 C 232.382812 448.320312 235.648438 446.3125 238.734375 443.945312 C 240.277344 442.796875 241.785156 441.503906 243.21875 440.175781 C 244.652344 438.847656 246.015625 437.449219 247.308594 436.015625 C 251.398438 431.421875 254.808594 426.363281 257.679688 421.050781 C 257.714844 421.195312 257.75 421.304688 257.75 421.445312 C 258.109375 423.132812 258.394531 424.855469 258.574219 426.613281 C 258.96875 430.09375 259.078125 433.574219 258.898438 437.089844 C 258.683594 440.605469 258.214844 444.085938 257.390625 447.53125 C 256.601562 450.976562 255.488281 454.382812 254.125 457.683594 C 255.957031 454.597656 257.5 451.296875 258.683594 447.890625 C 259.257812 446.167969 259.796875 444.445312 260.226562 442.652344 L 260.511719 441.324219 L 260.765625 439.996094 C 260.941406 439.101562 261.050781 438.203125 261.195312 437.304688 C 261.410156 435.511719 261.625 433.683594 261.695312 431.851562 C 261.769531 430.023438 261.734375 428.191406 261.660156 426.363281 C 261.625 425.5 261.554688 424.675781 261.445312 423.816406 C 261.515625 423.816406 261.515625 423.78125 261.554688 423.78125 L 261.625 423.707031 L 261.910156 423.347656 L 262.449219 422.632812 L 263.527344 421.160156 C 264.246094 420.191406 264.925781 419.1875 265.570312 418.183594 C 266.898438 416.171875 268.191406 414.128906 269.410156 412.046875 C 270.628906 409.964844 271.742188 407.8125 272.785156 405.625 C 273.859375 403.472656 274.828125 401.246094 275.726562 398.988281 C 277.554688 394.503906 279.027344 389.875 280.210938 385.171875 C 280.605469 383.59375 280.929688 382.050781 281.25 380.472656 C 282.148438 383.808594 282.972656 387.183594 283.617188 390.589844 C 284.804688 397.121094 285.414062 403.792969 285.414062 410.46875 C 285.449219 411.292969 285.414062 412.15625 285.378906 412.980469 C 285.339844 413.804688 285.339844 414.667969 285.304688 415.492188 L 285.160156 418.003906 L 285.089844 419.257812 L 284.980469 420.515625 L 284.765625 423.027344 L 284.445312 425.539062 C 284.410156 425.96875 284.335938 426.363281 284.300781 426.792969 L 284.121094 428.050781 C 283.976562 428.875 283.871094 429.699219 283.726562 430.523438 C 283.152344 433.824219 282.433594 437.125 281.609375 440.390625 C 280.785156 443.65625 279.78125 446.886719 278.703125 450.078125 C 280.066406 446.992188 281.25 443.800781 282.328125 440.605469 C 283.402344 437.378906 284.371094 434.113281 285.160156 430.8125 C 285.378906 429.988281 285.519531 429.160156 285.734375 428.335938 L 286.023438 427.082031 C 286.09375 426.648438 286.167969 426.253906 286.273438 425.824219 L 286.742188 423.3125 L 287.136719 420.800781 L 287.316406 419.546875 L 287.457031 418.289062 L 287.78125 415.742188 C 287.851562 414.882812 287.925781 414.054688 287.996094 413.195312 C 288.066406 412.332031 288.140625 411.472656 288.175781 410.648438 C 288.535156 403.792969 288.285156 396.941406 287.457031 390.089844 C 287.027344 386.714844 286.453125 383.34375 285.699219 380.007812 C 286.742188 375.378906 287.492188 370.640625 287.925781 365.90625 C 288.5 359.484375 288.425781 352.988281 287.816406 346.566406 C 287.53125 343.339844 287.027344 340.144531 286.453125 336.988281 C 285.808594 333.832031 285.089844 330.671875 284.191406 327.550781 C 283.441406 324.933594 282.578125 322.347656 281.644531 319.765625 C 284.585938 323.785156 287.316406 327.980469 289.71875 332.324219 C 291.835938 336.089844 293.699219 340 295.351562 343.949219 L 296.570312 346.960938 C 296.964844 347.96875 297.324219 348.972656 297.683594 350.011719 L 298.222656 351.519531 L 298.6875 353.0625 C 299.011719 354.101562 299.335938 355.105469 299.65625 356.148438 L 300.480469 359.269531 C 300.769531 360.308594 301.019531 361.351562 301.269531 362.390625 L 301.628906 363.96875 C 301.738281 364.507812 301.84375 365.007812 301.953125 365.546875 C 302.167969 366.625 302.382812 367.664062 302.527344 368.742188 C 303.246094 372.972656 303.710938 377.28125 303.960938 381.585938 C 304.429688 390.195312 303.890625 398.84375 302.457031 407.347656 L 301.019531 415.8125 L 306.1875 409.03125 C 309.09375 405.195312 311.710938 401.105469 313.9375 396.835938 C 316.160156 392.566406 317.992188 388.078125 319.460938 383.523438 L 319.75 382.660156 L 320 381.800781 L 320.503906 380.078125 C 320.789062 378.894531 321.113281 377.746094 321.363281 376.5625 C 321.902344 374.230469 322.296875 371.863281 322.65625 369.457031 C 322.726562 368.957031 322.800781 368.453125 322.835938 367.953125 L 322.976562 368.847656 C 323.625 373.332031 324.019531 377.855469 324.054688 382.410156 C 324.125 386.929688 323.875 391.488281 323.371094 396.007812 C 322.871094 400.53125 322.007812 405.015625 320.933594 409.425781 C 319.820312 413.839844 318.386719 418.183594 316.734375 422.414062 C 315.085938 426.648438 313.074219 430.777344 310.886719 434.792969 C 308.664062 438.777344 306.1875 442.652344 303.460938 446.347656 L 302.417969 447.710938 L 301.34375 449.074219 C 300.660156 449.972656 299.90625 450.867188 299.191406 451.765625 C 297.71875 453.523438 296.175781 455.246094 294.597656 456.894531 C 301.234375 450.546875 307.011719 443.261719 311.785156 435.332031 C 314.152344 431.386719 316.304688 427.257812 318.132812 423.027344 C 318.386719 422.488281 318.566406 421.949219 318.816406 421.410156 L 319.460938 419.796875 C 319.675781 419.257812 319.894531 418.71875 320.109375 418.183594 L 320.683594 416.53125 L 321.257812 414.882812 C 321.433594 414.34375 321.652344 413.804688 321.792969 413.230469 L 322.800781 409.894531 C 324.019531 405.410156 325.023438 400.886719 325.667969 396.261719 C 326.316406 391.667969 326.636719 387.003906 326.710938 382.339844 C 326.78125 373.046875 325.632812 363.71875 323.265625 354.675781 Z M 138.09375 453.558594 C 138.09375 453.667969 138.058594 453.773438 137.984375 453.808594 C 137.949219 453.847656 137.878906 453.847656 137.878906 453.847656 C 137.84375 453.847656 137.804688 453.882812 137.769531 453.917969 L 137.625 454.027344 C 137.589844 454.0625 137.519531 454.097656 137.449219 454.132812 C 137.339844 454.203125 137.195312 454.242188 136.980469 454.242188 C 137.375 454.027344 137.734375 453.808594 138.09375 453.558594 Z M 142.792969 452.410156 C 143.332031 452.589844 143.871094 452.769531 144.40625 452.949219 C 144.515625 452.984375 144.625 453.019531 144.730469 453.058594 C 144.550781 453.414062 144.335938 453.773438 144.121094 454.132812 C 143.796875 454.636719 143.402344 455.136719 142.972656 455.566406 C 142.113281 456.429688 141.105469 457.148438 139.957031 457.542969 C 138.8125 457.9375 137.554688 457.972656 136.371094 457.613281 C 135.761719 457.433594 135.1875 457.148438 134.648438 456.789062 C 134.109375 456.464844 133.644531 456.070312 133.214844 455.605469 C 133.25 455.605469 133.25 455.605469 133.285156 455.605469 C 134.433594 455.425781 135.617188 455.066406 136.65625 454.492188 C 136.695312 454.851562 136.945312 455.136719 137.304688 455.28125 C 137.519531 455.351562 137.769531 455.390625 138.019531 455.351562 C 138.273438 455.316406 138.453125 455.210938 138.667969 455.066406 C 138.847656 454.921875 139.027344 454.707031 139.132812 454.457031 C 139.242188 454.203125 139.242188 453.882812 139.132812 453.632812 C 139.0625 453.414062 138.882812 453.234375 138.703125 453.128906 C 138.917969 452.949219 139.132812 452.804688 139.347656 452.625 C 139.601562 453.019531 139.707031 453.378906 139.742188 453.703125 C 139.78125 454.0625 139.707031 454.382812 139.5625 454.707031 C 139.421875 454.996094 139.242188 455.28125 138.953125 455.496094 C 138.632812 455.710938 138.238281 455.890625 137.664062 456 C 138.019531 456.464844 138.703125 456.679688 139.347656 456.574219 C 139.996094 456.464844 140.605469 455.964844 140.890625 455.316406 C 141.179688 454.671875 141.144531 453.917969 140.785156 453.308594 C 140.496094 452.839844 140.066406 452.554688 139.601562 452.484375 C 139.671875 452.445312 139.742188 452.375 139.816406 452.339844 C 140.101562 452.125 140.355469 451.945312 140.640625 451.765625 C 140.820312 451.835938 140.964844 451.871094 141.144531 451.945312 C 141.679688 452.050781 142.253906 452.230469 142.792969 452.410156 Z M 115.238281 447.316406 C 114.773438 446.058594 114.554688 444.660156 114.84375 443.476562 C 114.949219 442.867188 115.167969 442.292969 115.453125 441.753906 C 115.742188 441.179688 116.0625 440.679688 116.457031 440.140625 C 116.636719 439.890625 116.851562 439.601562 117.066406 439.351562 C 117.285156 439.0625 117.5 438.8125 117.714844 438.597656 C 117.929688 438.382812 118.109375 438.203125 118.324219 438.058594 C 118.539062 437.878906 118.824219 437.699219 119.113281 437.484375 C 119.722656 437.054688 120.367188 436.589844 120.941406 436.121094 C 121.554688 435.621094 122.128906 435.117188 122.699219 434.613281 C 123.273438 434.113281 123.777344 433.609375 124.351562 433.070312 C 124.890625 432.535156 125.464844 431.996094 126 431.351562 C 126.539062 430.738281 127.078125 430.023438 127.507812 429.269531 C 127.582031 429.125 127.652344 428.980469 127.722656 428.875 C 127.761719 429.125 127.796875 429.375 127.832031 429.628906 C 127.902344 430.238281 127.9375 430.917969 127.976562 431.566406 C 128.011719 432.210938 128.011719 432.855469 128.011719 433.503906 C 127.976562 434.472656 127.902344 435.476562 127.6875 436.445312 C 127.4375 436.550781 127.222656 436.660156 126.96875 436.730469 C 125.75 437.304688 124.566406 437.953125 123.492188 438.777344 C 122.414062 439.601562 121.410156 440.535156 120.621094 441.683594 C 119.078125 444.015625 118.648438 446.742188 119.003906 449.253906 C 119.183594 447.996094 119.542969 446.8125 120.046875 445.703125 C 120.296875 445.164062 120.585938 444.625 120.90625 444.160156 C 121.230469 443.65625 121.589844 443.226562 121.984375 442.832031 C 123.597656 441.214844 125.785156 440.210938 128.011719 439.53125 C 129.125 439.171875 130.273438 438.921875 131.382812 438.777344 C 131.957031 438.707031 132.496094 438.667969 133.070312 438.667969 C 133.644531 438.667969 134.21875 438.667969 134.828125 438.707031 C 136.046875 438.742188 137.339844 438.847656 138.632812 438.8125 C 139.277344 438.8125 139.957031 438.8125 140.605469 438.777344 L 141.285156 438.742188 L 141.25 438.8125 C 140.066406 440.390625 138.8125 441.863281 137.449219 443.191406 C 137.089844 443.550781 136.765625 443.835938 136.371094 444.195312 L 135.292969 445.199219 C 134.9375 445.523438 134.578125 445.808594 134.253906 446.097656 C 133.894531 446.347656 133.574219 446.5625 133.214844 446.777344 C 132.855469 446.992188 132.460938 447.136719 132.066406 447.28125 C 131.671875 447.421875 131.277344 447.496094 130.84375 447.566406 C 130.414062 447.640625 129.949219 447.675781 129.375 447.710938 C 128.835938 447.78125 128.15625 447.855469 127.582031 448.140625 C 126.359375 448.644531 125.5 449.578125 124.960938 450.582031 C 124.636719 451.226562 124.421875 451.910156 124.28125 452.554688 C 123.921875 452.125 123.5625 451.730469 123.167969 451.335938 L 123.058594 451.226562 L 122.878906 451.15625 C 121.160156 450.617188 119.398438 450.328125 117.605469 450.257812 C 117.5 450.257812 117.425781 450.257812 117.320312 450.257812 C 116.316406 449.359375 115.632812 448.390625 115.238281 447.316406 Z M 121.335938 483.660156 C 120.90625 482.945312 120.546875 482.15625 120.332031 481.328125 C 120.800781 481.867188 121.335938 482.371094 121.910156 482.730469 C 123.023438 483.445312 124.351562 483.769531 125.644531 483.660156 C 126.933594 483.554688 128.15625 483.085938 129.230469 482.441406 C 130.308594 481.796875 131.3125 481.007812 132.136719 480.039062 C 133.75 478.101562 134.757812 475.695312 135.078125 473.222656 C 135.1875 472.609375 135.257812 472 135.4375 471.425781 C 135.617188 470.851562 135.832031 470.277344 136.082031 469.703125 C 136.585938 468.664062 137.195312 467.660156 137.949219 466.761719 C 138.988281 466.511719 140.03125 466.152344 140.964844 465.578125 C 141.035156 465.542969 141.035156 465.472656 141.035156 465.398438 C 141 465.328125 140.925781 465.292969 140.855469 465.328125 C 139.457031 466.046875 137.878906 466.367188 136.300781 466.546875 C 134.71875 466.691406 133.140625 466.65625 131.527344 466.511719 C 129.914062 466.402344 128.371094 466.1875 126.792969 465.9375 C 125.210938 465.6875 123.5625 465.507812 121.949219 465.433594 C 120.332031 465.363281 118.683594 465.328125 117.03125 465.507812 C 116.207031 465.578125 115.347656 465.6875 114.519531 465.9375 C 114.304688 466.007812 114.089844 466.082031 113.875 466.152344 L 113.300781 466.402344 C 112.90625 466.546875 112.511719 466.726562 112.152344 466.941406 C 111.363281 467.335938 110.609375 467.839844 109.964844 468.449219 C 109.28125 469.058594 108.671875 469.8125 108.242188 470.636719 C 107.847656 471.355469 107.632812 472.179688 107.488281 472.96875 C 105.945312 471.355469 104.796875 469.382812 104.222656 467.230469 C 104.117188 466.90625 104.078125 466.476562 104.007812 466.082031 C 103.9375 465.6875 103.902344 465.292969 103.902344 464.898438 C 103.863281 464.109375 103.863281 463.28125 103.902344 462.492188 C 104.042969 460.914062 104.4375 459.335938 105.15625 457.972656 C 105.875 456.574219 106.914062 455.390625 108.207031 454.492188 C 109.496094 453.59375 111.003906 453.019531 112.617188 452.625 C 114.234375 452.195312 115.8125 451.980469 117.460938 451.980469 C 119.042969 451.980469 120.621094 452.230469 122.164062 452.664062 C 123.097656 453.453125 123.921875 454.347656 124.566406 455.390625 C 124.496094 455.351562 124.421875 455.351562 124.386719 455.316406 C 123.957031 455.171875 123.527344 455.101562 123.097656 455.066406 C 122.699219 455.03125 122.269531 454.996094 121.839844 455.03125 C 121.410156 455.03125 121.015625 455.066406 120.585938 455.171875 C 119.757812 455.316406 118.96875 455.53125 118.214844 455.855469 C 116.710938 456.464844 115.308594 457.328125 114.125 458.4375 C 115.523438 457.683594 116.996094 457.074219 118.46875 456.644531 C 119.222656 456.429688 119.972656 456.25 120.726562 456.179688 C 121.085938 456.140625 121.480469 456.105469 121.839844 456.105469 C 122.199219 456.105469 122.558594 456.140625 122.953125 456.179688 C 123.707031 456.25 124.421875 456.394531 124.78125 456.789062 C 124.960938 456.96875 125.070312 457.289062 125.105469 457.542969 C 125.105469 457.683594 125.070312 457.792969 125.03125 457.828125 C 124.996094 457.902344 124.925781 457.9375 124.816406 457.972656 C 124.566406 458.042969 124.207031 458.007812 123.847656 457.9375 C 123.667969 457.902344 123.527344 457.828125 123.382812 457.757812 C 123.238281 457.683594 123.132812 457.578125 122.988281 457.433594 C 122.84375 457.289062 122.664062 457.109375 122.449219 457.039062 C 122.234375 456.933594 122.019531 456.894531 121.804688 456.859375 C 121.375 456.824219 120.980469 456.933594 120.585938 457.074219 C 120.980469 457.039062 121.375 457.039062 121.730469 457.148438 C 121.910156 457.21875 122.054688 457.289062 122.199219 457.398438 C 122.34375 457.503906 122.449219 457.613281 122.558594 457.792969 C 122.664062 457.972656 122.84375 458.152344 123.023438 458.296875 C 123.203125 458.4375 123.417969 458.546875 123.597656 458.652344 C 123.992188 458.832031 124.460938 458.941406 124.960938 458.871094 C 125.210938 458.832031 125.535156 458.691406 125.75 458.4375 C 125.785156 458.367188 125.859375 458.296875 125.894531 458.222656 C 126.109375 458.726562 126.359375 459.226562 126.648438 459.695312 C 126.863281 460.015625 127.113281 460.339844 127.367188 460.628906 C 127.617188 460.914062 127.867188 461.203125 128.15625 461.453125 C 128.730469 461.992188 129.410156 462.457031 130.164062 462.746094 C 130.917969 463.03125 131.742188 463.140625 132.496094 463.066406 C 133.25 463.03125 134.003906 462.921875 134.71875 462.851562 C 136.191406 462.707031 137.664062 462.566406 139.097656 462.566406 C 139.816406 462.566406 140.53125 462.636719 141.214844 462.816406 C 141.859375 462.996094 142.46875 463.316406 142.863281 463.820312 C 143.261719 464.324219 143.476562 464.96875 143.511719 465.648438 C 143.582031 466.332031 143.476562 467.015625 143.332031 467.695312 C 143.1875 468.414062 142.972656 468.914062 142.578125 469.382812 C 142.183594 469.8125 141.609375 470.277344 141.070312 470.78125 C 140.53125 471.285156 139.957031 471.820312 139.457031 472.394531 C 139.207031 472.683594 138.953125 472.96875 138.703125 473.257812 L 138.019531 474.117188 C 137.089844 475.300781 136.191406 476.558594 135.472656 477.921875 C 134.757812 479.285156 134.144531 480.71875 133.75 482.15625 C 133.535156 482.871094 133.320312 483.480469 133.035156 484.019531 C 132.890625 484.308594 132.710938 484.558594 132.496094 484.773438 C 132.28125 485.023438 132.066406 485.277344 131.8125 485.492188 C 130.84375 486.386719 129.625 486.960938 128.296875 487.140625 C 126.96875 487.285156 125.605469 487 124.351562 486.386719 C 123.132812 485.777344 122.089844 484.84375 121.335938 483.660156 Z M 126.683594 498.300781 C 126.46875 498.335938 126.289062 498.40625 126.109375 498.445312 C 125.929688 498.480469 125.714844 498.550781 125.535156 498.585938 C 125.140625 498.695312 124.78125 498.800781 124.421875 498.945312 C 124.386719 498.730469 124.386719 498.515625 124.351562 498.300781 C 124.316406 497.65625 124.28125 496.972656 124.28125 496.328125 C 124.28125 495.644531 124.28125 495 124.316406 494.316406 C 124.351562 493.886719 124.351562 493.457031 124.386719 493.0625 C 125.175781 493.242188 125.964844 493.347656 126.792969 493.386719 C 126.792969 493.527344 126.753906 493.671875 126.753906 493.816406 C 126.71875 494.175781 126.71875 494.496094 126.71875 494.855469 C 126.753906 495.539062 126.863281 496.21875 127.007812 496.902344 C 127.113281 497.367188 127.257812 497.796875 127.4375 498.230469 C 127.1875 498.191406 126.933594 498.265625 126.683594 498.300781 Z M 132.171875 497.476562 L 130.667969 498.15625 L 130.199219 498.371094 L 129.804688 497.726562 L 128.871094 496.148438 L 127.902344 494.496094 C 127.6875 494.136719 127.507812 493.78125 127.257812 493.421875 C 127.367188 493.421875 127.472656 493.421875 127.617188 493.421875 C 128.730469 493.386719 129.839844 493.207031 130.882812 492.8125 C 131.742188 492.523438 132.566406 492.128906 133.355469 491.664062 C 133.285156 492.378906 133.285156 493.097656 133.429688 493.816406 C 133.609375 494.75 133.96875 495.679688 134.503906 496.46875 C 134.21875 496.578125 133.929688 496.722656 133.679688 496.828125 Z M 140.820312 501.851562 C 140.496094 502.320312 140.246094 502.820312 139.996094 503.324219 C 139.742188 503.824219 139.492188 504.328125 139.277344 504.832031 C 139.207031 505.046875 139.097656 505.261719 139.027344 505.476562 C 138.59375 505.226562 138.164062 504.972656 137.769531 504.6875 C 137.050781 504.183594 136.40625 503.644531 135.761719 503.035156 C 135.152344 502.425781 134.542969 501.78125 134.003906 501.097656 C 133.609375 500.5625 133.214844 499.988281 132.855469 499.414062 C 133 499.304688 133.105469 499.199219 133.25 499.089844 C 133.679688 498.660156 134.109375 498.230469 134.46875 497.726562 C 134.648438 497.511719 134.792969 497.261719 134.9375 497.007812 C 135.511719 497.761719 136.191406 498.445312 137.015625 498.980469 L 137.878906 499.554688 L 138.703125 498.839844 C 139.027344 498.550781 139.347656 498.265625 139.636719 497.941406 C 139.707031 498.191406 139.78125 498.445312 139.851562 498.660156 C 140.066406 499.199219 140.355469 499.734375 140.675781 500.203125 C 140.890625 500.488281 141.105469 500.777344 141.359375 501.0625 C 141.179688 501.277344 141 501.566406 140.820312 501.851562 Z M 145.449219 499.125 L 143.976562 500.058594 L 143.4375 499.664062 L 142.21875 498.765625 C 141.824219 498.445312 141.394531 498.15625 140.925781 497.832031 C 140.675781 497.65625 140.460938 497.511719 140.210938 497.332031 C 141.035156 496.46875 141.753906 495.539062 142.398438 494.53125 C 142.9375 495.394531 143.582031 496.183594 144.335938 496.828125 C 144.765625 497.1875 145.195312 497.546875 145.699219 497.796875 C 146.023438 497.976562 146.34375 498.15625 146.703125 498.300781 C 146.667969 498.300781 146.667969 498.335938 146.632812 498.335938 Z M 156.105469 501.671875 C 155.890625 502.140625 155.636719 502.605469 155.421875 503.074219 C 155.101562 503.789062 154.742188 504.472656 154.453125 505.1875 C 153.914062 505.007812 153.378906 504.832031 152.839844 504.578125 C 152.050781 504.257812 151.261719 503.863281 150.507812 503.429688 C 149.753906 503 149 502.570312 148.246094 502.066406 C 147.671875 501.671875 147.097656 501.242188 146.523438 500.8125 C 146.632812 500.703125 146.703125 500.5625 146.8125 500.453125 C 147.097656 500.023438 147.351562 499.59375 147.53125 499.089844 C 147.601562 498.945312 147.636719 498.800781 147.671875 498.695312 C 148.570312 498.980469 149.503906 499.160156 150.472656 499.199219 L 151.296875 499.234375 L 151.835938 498.550781 C 152.085938 498.265625 152.300781 497.941406 152.515625 497.617188 C 152.695312 497.90625 152.910156 498.15625 153.164062 498.40625 C 153.59375 498.875 154.09375 499.269531 154.632812 499.59375 C 155.171875 499.914062 155.746094 500.203125 156.355469 500.417969 C 156.464844 500.453125 156.535156 500.488281 156.644531 500.523438 C 156.464844 500.957031 156.246094 501.3125 156.105469 501.671875 Z M 159.046875 495.609375 C 158.832031 496.039062 158.617188 496.433594 158.402344 496.828125 C 158.183594 497.222656 158.007812 497.65625 157.828125 498.050781 C 157.789062 498.121094 157.753906 498.191406 157.71875 498.265625 C 157.503906 498.230469 157.289062 498.15625 157.074219 498.121094 L 155.496094 497.726562 L 153.84375 497.296875 C 153.558594 497.222656 153.234375 497.152344 152.910156 497.042969 C 153.519531 496.183594 154.058594 495.285156 154.5625 494.355469 C 154.921875 493.707031 155.242188 493.027344 155.53125 492.308594 C 156.644531 493.421875 157.898438 494.390625 159.261719 495.179688 C 159.191406 495.359375 159.117188 495.5 159.046875 495.609375 Z M 182.402344 470.207031 C 182.367188 470.171875 182.332031 470.171875 182.332031 470.136719 C 183.121094 469.992188 183.875 469.777344 184.664062 469.523438 C 185.058594 469.8125 185.488281 470.027344 185.921875 470.277344 C 186.421875 470.53125 186.925781 470.746094 187.425781 470.960938 C 187.679688 471.03125 187.894531 471.140625 188.144531 471.210938 L 187.246094 471.535156 L 185.597656 472.109375 C 185.238281 472.253906 184.84375 472.394531 184.484375 472.539062 C 184.414062 472.394531 184.339844 472.289062 184.234375 472.144531 C 183.730469 471.355469 183.121094 470.710938 182.402344 470.207031 Z M 170.527344 495.609375 L 170.167969 497.511719 C 170.0625 498.15625 169.953125 498.765625 169.847656 499.375 C 169.773438 499.808594 169.703125 500.238281 169.667969 500.703125 C 168.984375 500.777344 168.265625 500.8125 167.550781 500.738281 C 166.617188 500.703125 165.683594 500.5625 164.75 500.382812 C 163.820312 500.167969 162.921875 499.878906 162.023438 499.519531 C 161.59375 499.339844 161.164062 499.125 160.734375 498.875 L 159.980469 498.445312 C 160.050781 498.085938 160.085938 497.691406 160.121094 497.332031 C 160.160156 496.828125 160.160156 496.363281 160.085938 495.859375 C 160.085938 495.824219 160.085938 495.789062 160.085938 495.753906 C 160.410156 495.933594 160.769531 496.113281 161.089844 496.253906 L 162.238281 496.792969 L 162.921875 495.789062 C 163.460938 494.964844 163.925781 494.066406 164.25 493.132812 C 164.390625 492.773438 164.464844 492.417969 164.570312 492.058594 C 165.039062 492.453125 165.503906 492.773438 166.042969 493.0625 C 166.832031 493.457031 167.65625 493.78125 168.519531 493.957031 C 169.273438 494.101562 170.027344 494.210938 170.777344 494.210938 C 170.742188 494.640625 170.636719 495.144531 170.527344 495.609375 Z M 173.683594 488.613281 C 173.542969 489.042969 173.363281 489.472656 173.21875 489.90625 C 173.074219 490.335938 172.933594 490.765625 172.824219 491.195312 C 172.789062 491.339844 172.753906 491.449219 172.714844 491.589844 C 172.179688 491.625 171.675781 491.664062 171.136719 491.699219 C 170.382812 491.734375 169.632812 491.734375 168.878906 491.734375 C 168.125 491.734375 167.335938 491.699219 166.546875 491.625 C 166.328125 491.625 166.152344 491.589844 165.933594 491.589844 C 165.71875 491.589844 165.539062 491.554688 165.324219 491.554688 C 165.144531 491.554688 164.964844 491.519531 164.75 491.519531 C 164.824219 491.089844 164.894531 490.65625 164.929688 490.226562 C 165.003906 489.257812 164.964844 488.253906 164.75 487.285156 C 166.042969 487.679688 167.335938 487.96875 168.664062 488.109375 C 170.421875 488.289062 172.179688 488.253906 173.902344 487.96875 C 173.828125 488.148438 173.757812 488.398438 173.683594 488.613281 Z M 181.148438 482.691406 L 181.253906 483.085938 L 181.507812 483.839844 C 181.6875 484.34375 181.867188 484.84375 182.046875 485.347656 C 182.152344 485.671875 182.296875 485.992188 182.441406 486.316406 C 181.972656 486.675781 181.507812 487.035156 181.003906 487.320312 C 180.324219 487.75 179.570312 488.109375 178.851562 488.46875 C 178.097656 488.792969 177.308594 489.078125 176.519531 489.332031 C 175.945312 489.511719 175.335938 489.617188 174.761719 489.726562 C 174.691406 489.117188 174.582031 488.503906 174.402344 487.894531 C 174.796875 487.824219 175.15625 487.75 175.550781 487.644531 L 176.125 487.5 L 176.339844 487 C 176.734375 486.101562 176.949219 485.203125 177.058594 484.234375 C 177.164062 483.304688 177.128906 482.335938 176.949219 481.402344 C 176.914062 481.257812 176.878906 481.113281 176.84375 480.972656 C 177.238281 481.078125 177.597656 481.148438 177.992188 481.1875 C 178.601562 481.257812 179.175781 481.222656 179.785156 481.1875 C 180.070312 481.148438 180.324219 481.113281 180.609375 481.078125 C 180.71875 481.507812 180.859375 481.941406 180.96875 482.371094 Z M 182.65625 479.320312 C 181.613281 479.390625 180.609375 479.570312 179.605469 479.75 C 179.066406 479.859375 178.492188 480.003906 177.953125 480.144531 C 177.558594 480.253906 177.164062 480.359375 176.769531 480.503906 C 176.589844 479.859375 176.339844 479.25 176.015625 478.636719 C 178.242188 478.925781 180.539062 478.855469 182.726562 478.421875 C 182.691406 478.746094 182.691406 479.035156 182.65625 479.320312 Z M 189.902344 478.027344 C 188.828125 478.316406 187.714844 478.53125 186.601562 478.746094 C 186.0625 478.855469 185.488281 478.890625 184.914062 478.960938 L 183.335938 479.140625 C 183.230469 478.890625 183.085938 478.636719 182.90625 478.386719 C 183.550781 478.242188 184.234375 478.066406 184.878906 477.886719 L 185.488281 477.707031 L 185.523438 477.097656 C 185.5625 476.378906 185.523438 475.625 185.382812 474.941406 C 185.992188 475.300781 186.601562 475.589844 187.246094 475.875 C 188.214844 476.269531 189.222656 476.628906 190.226562 476.878906 C 190.980469 477.058594 191.769531 477.203125 192.523438 477.273438 C 191.660156 477.527344 190.800781 477.8125 189.902344 478.027344 Z M 189.902344 478.027344 " fill-opacity="1" fill-rule="nonzero"/></g><g fill="#f5f5f3" fill-opacity="1"><g transform="translate(339.224372, 415.131503)"><g><path d="M 67.324219 -8.617188 L 41.84375 -78.191406 L 36.597656 -78.191406 L 13.238281 -10.992188 C 11.242188 -5.246094 8.617188 -2.746094 1.25 -1.875 L 1.25 0 C 7.992188 -0.375 17.863281 -0.375 24.730469 0 L 24.730469 -1.875 C 18.359375 -2.871094 14.363281 -4.871094 15.863281 -8.867188 L 21.734375 -26.105469 L 51.335938 -26.105469 L 57.082031 -10.367188 C 58.957031 -5.371094 61.703125 -2.871094 51.210938 -1.875 L 51.210938 0 C 59.703125 -0.375 69.199219 -0.375 77.691406 0 L 77.691406 -1.875 C 68.199219 -2.746094 68.574219 -5.246094 67.324219 -8.617188 Z M 22.734375 -28.851562 L 36.222656 -68.199219 L 50.335938 -28.851562 Z M 22.734375 -28.851562 "/></g></g></g><g fill="#f5f5f3" fill-opacity="1"><g transform="translate(415.662044, 415.131503)"><g><path d="M 44.464844 -15.988281 C 44.464844 -27.230469 31.851562 -32.726562 23.605469 -37.222656 C 15.363281 -41.71875 11.242188 -45.214844 11.242188 -51.210938 C 11.242188 -57.082031 15.488281 -61.203125 21.234375 -61.203125 C 28.230469 -61.203125 35.847656 -55.707031 38.472656 -47.589844 L 40.71875 -47.589844 L 39.59375 -62.578125 L 37.347656 -62.578125 C 36.722656 -60.828125 35.722656 -60.078125 34.347656 -60.078125 C 30.851562 -60.078125 28.976562 -63.578125 21.234375 -63.578125 C 10.742188 -63.578125 3.746094 -56.082031 3.746094 -47.714844 C 3.746094 -39.96875 9.492188 -34.472656 19.109375 -29.226562 C 29.726562 -23.480469 36.472656 -19.984375 36.472656 -12.242188 C 36.472656 -5.996094 32.476562 -1.625 25.980469 -1.625 C 18.359375 -1.625 8.117188 -7.742188 6.121094 -16.363281 L 3.496094 -16.363281 L 4.746094 0 L 7.121094 0 C 7.496094 -1.375 8.617188 -2.746094 10.742188 -2.746094 C 15.363281 -2.746094 19.859375 1.125 26.730469 1.125 C 36.472656 1.125 44.464844 -6.621094 44.464844 -15.988281 Z M 44.464844 -15.988281 "/></g></g></g><g fill="#f5f5f3" fill-opacity="1"><g transform="translate(460.750195, 415.131503)"><g><path d="M 49.710938 -9.742188 L 49.710938 -42.46875 C 49.710938 -57.582031 48.339844 -63.703125 33.847656 -63.703125 C 18.359375 -63.703125 7.371094 -56.332031 7.371094 -47.839844 C 7.371094 -44.589844 8.867188 -42.59375 11.867188 -42.59375 C 21.609375 -42.59375 12.617188 -60.828125 30.851562 -60.828125 C 41.21875 -60.828125 41.09375 -54.957031 41.09375 -42.71875 L 41.09375 -38.71875 C 9.992188 -31.976562 3.121094 -23.605469 3.121094 -13.738281 C 3.121094 -2 12.742188 1.375 19.609375 1.375 C 30.351562 1.375 38.222656 -6.496094 41.21875 -11.367188 L 41.46875 -11.367188 L 40.84375 -0.75 C 41.34375 0.375 42.09375 1 43.09375 1.375 C 47.839844 0 50.210938 -0.25 56.832031 -0.75 L 56.832031 -2.871094 C 51.960938 -2.5 49.710938 -4.371094 49.710938 -9.742188 Z M 23.855469 -2.746094 C 18.234375 -2.746094 12.617188 -6.246094 12.617188 -14.363281 C 12.617188 -21.234375 15.988281 -30.101562 41.09375 -36.097656 L 41.09375 -15.363281 C 39.71875 -11.992188 32.476562 -2.746094 23.855469 -2.746094 Z M 23.855469 -2.746094 "/></g></g></g><g fill="#f5f5f3" fill-opacity="1"><g transform="translate(517.578805, 415.131503)"><g><path d="M 13.738281 -77.441406 C 16.363281 -77.441406 18.734375 -79.566406 18.734375 -82.3125 C 18.734375 -84.808594 16.363281 -87.058594 13.738281 -87.058594 C 11.242188 -87.058594 8.867188 -84.808594 8.867188 -82.3125 C 8.867188 -79.566406 11.242188 -77.441406 13.738281 -77.441406 Z M 18.609375 -6.496094 L 18.609375 -46.839844 C 18.609375 -54.582031 18.609375 -59.328125 19.359375 -61.828125 C 18.859375 -62.953125 18.234375 -63.578125 17.238281 -63.953125 C 13.113281 -61.203125 8.867188 -59.203125 2.871094 -58.082031 L 2.871094 -56.207031 C 7.246094 -56.457031 9.867188 -55.457031 9.867188 -51.460938 L 9.867188 -6.496094 C 9.867188 -3.371094 6.496094 -2.375 2.5 -1.875 L 2.5 0 C 10.242188 -0.625 18.234375 -0.625 25.980469 0 L 25.980469 -1.875 C 22.109375 -2.375 18.609375 -3.371094 18.609375 -6.496094 Z M 18.609375 -6.496094 "/></g></g></g><g fill="#f5f5f3" fill-opacity="1"><g transform="translate(343.310377, 479.179868)"><g><path d="M 14.578125 -4.234375 L 5.125 -4.234375 L 3.328125 0 L 0.03125 0 L 8.3125 -18.75 L 11.546875 -18.75 L 19.75 0 L 16.375 0 Z M 13.375 -7.046875 L 9.828125 -15.375 L 6.296875 -7.046875 Z M 13.375 -7.046875 "/></g></g></g><g fill="#f5f5f3" fill-opacity="1"><g transform="translate(373.79747, 479.179868)"><g><path d="M 18.734375 0 L 15.5625 0 L 15.5625 -7.765625 L 5.625 -7.765625 L 5.625 0 L 2.46875 0 L 2.46875 -18.75 L 5.625 -18.75 L 5.625 -10.609375 L 15.5625 -10.609375 L 15.5625 -18.75 L 18.734375 -18.75 Z M 18.734375 0 "/></g></g></g><g fill="#f5f5f3" fill-opacity="1"><g transform="translate(405.704386, 479.179868)"><g><path d="M 22.296875 0 L 19.375 0 L 19.34375 -14.015625 L 13.421875 -1.953125 L 11.359375 -1.953125 L 5.4375 -14.015625 L 5.4375 0 L 2.46875 0 L 2.46875 -18.75 L 6.21875 -18.75 L 12.40625 -6.296875 L 18.5625 -18.75 L 22.296875 -18.75 Z M 22.296875 0 "/></g></g></g><g fill="#f5f5f3" fill-opacity="1"><g transform="translate(441.201027, 479.179868)"><g><path d="M 14.578125 -4.234375 L 5.125 -4.234375 L 3.328125 0 L 0.03125 0 L 8.3125 -18.75 L 11.546875 -18.75 L 19.75 0 L 16.375 0 Z M 13.375 -7.046875 L 9.828125 -15.375 L 6.296875 -7.046875 Z M 13.375 -7.046875 "/></g></g></g><g fill="#f5f5f3" fill-opacity="1"><g transform="translate(471.688121, 479.179868)"><g><path d="M 2.46875 -18.75 L 10.15625 -18.75 C 12.957031 -18.75 15.273438 -17.863281 17.109375 -16.09375 C 18.941406 -14.332031 19.859375 -12.09375 19.859375 -9.375 C 19.859375 -6.664062 18.9375 -4.425781 17.09375 -2.65625 C 15.257812 -0.882812 12.921875 0 10.078125 0 L 2.46875 0 Z M 5.625 -15.921875 L 5.625 -2.84375 L 10.234375 -2.84375 C 12.078125 -2.84375 13.609375 -3.453125 14.828125 -4.671875 C 16.054688 -5.898438 16.671875 -7.457031 16.671875 -9.34375 C 16.671875 -11.238281 16.039062 -12.804688 14.78125 -14.046875 C 13.519531 -15.296875 11.960938 -15.921875 10.109375 -15.921875 Z M 5.625 -15.921875 "/></g></g></g><g fill="#f5f5f3" fill-opacity="1"><g transform="translate(503.16641, 479.179868)"><g/></g></g><g fill="#f5f5f3" fill-opacity="1"><g transform="translate(520.794784, 479.179868)"><g><path d="M 8.625 -18.890625 C 11.050781 -18.890625 13.238281 -18.25 15.1875 -16.96875 L 13.875 -14.171875 C 11.96875 -15.335938 10.140625 -15.921875 8.390625 -15.921875 C 7.441406 -15.921875 6.691406 -15.75 6.140625 -15.40625 C 5.597656 -15.070312 5.328125 -14.585938 5.328125 -13.953125 C 5.328125 -13.328125 5.578125 -12.796875 6.078125 -12.359375 C 6.578125 -11.921875 7.203125 -11.597656 7.953125 -11.390625 C 8.703125 -11.191406 9.515625 -10.9375 10.390625 -10.625 C 11.265625 -10.3125 12.078125 -9.976562 12.828125 -9.625 C 13.585938 -9.28125 14.210938 -8.738281 14.703125 -8 C 15.191406 -7.257812 15.4375 -6.363281 15.4375 -5.3125 C 15.4375 -3.664062 14.78125 -2.347656 13.46875 -1.359375 C 12.15625 -0.378906 10.453125 0.109375 8.359375 0.109375 C 6.929688 0.109375 5.546875 -0.15625 4.203125 -0.6875 C 2.867188 -1.226562 1.703125 -1.957031 0.703125 -2.875 L 2.0625 -5.59375 C 3.007812 -4.71875 4.050781 -4.046875 5.1875 -3.578125 C 6.320312 -3.109375 7.398438 -2.875 8.421875 -2.875 C 9.523438 -2.875 10.382812 -3.070312 11 -3.46875 C 11.613281 -3.875 11.921875 -4.429688 11.921875 -5.140625 C 11.921875 -5.785156 11.671875 -6.328125 11.171875 -6.765625 C 10.671875 -7.203125 10.046875 -7.519531 9.296875 -7.71875 C 8.546875 -7.925781 7.734375 -8.175781 6.859375 -8.46875 C 5.984375 -8.769531 5.171875 -9.085938 4.421875 -9.421875 C 3.671875 -9.753906 3.046875 -10.285156 2.546875 -11.015625 C 2.046875 -11.742188 1.796875 -12.628906 1.796875 -13.671875 C 1.796875 -15.253906 2.421875 -16.519531 3.671875 -17.46875 C 4.921875 -18.414062 6.570312 -18.890625 8.625 -18.890625 Z M 8.625 -18.890625 "/></g></g></g><g fill="#f5f5f3" fill-opacity="1"><g transform="translate(548.174349, 479.179868)"><g><path d="M 10.15625 -6.25 L 10.15625 0 L 7.015625 0 L 7.015625 -6.140625 L 0.03125 -18.75 L 3.21875 -18.75 L 8.578125 -9.625 L 13.828125 -18.75 L 17.046875 -18.75 Z M 10.15625 -6.25 "/></g></g></g><g fill="#f5f5f3" fill-opacity="1"><g transform="translate(575.95575, 479.179868)"><g><path d="M 14.578125 -4.234375 L 5.125 -4.234375 L 3.328125 0 L 0.03125 0 L 8.3125 -18.75 L 11.546875 -18.75 L 19.75 0 L 16.375 0 Z M 13.375 -7.046875 L 9.828125 -15.375 L 6.296875 -7.046875 Z M 13.375 -7.046875 "/></g></g></g><g fill="#f5f5f3" fill-opacity="1"><g transform="translate(606.442855, 479.179868)"><g><path d="M 5.625 0 L 2.46875 0 L 2.46875 -18.75 L 5.625 -18.75 Z M 5.625 0 "/></g></g></g><g fill="#f5f5f3" fill-opacity="1"><g transform="translate(625.24996, 479.179868)"><g><path d="M 15.03125 -15.921875 L 5.625 -15.921875 L 5.625 -10.5 L 14.15625 -10.5 L 14.15625 -7.6875 L 5.625 -7.6875 L 5.625 0 L 2.46875 0 L 2.46875 -18.75 L 15.0625 -18.75 Z M 15.03125 -15.921875 "/></g></g></g><g fill="#f5f5f3" fill-opacity="1"><g transform="translate(651.370434, 479.179868)"><g><path d="M 18.40625 -18.75 L 18.40625 -7.765625 C 18.40625 -5.316406 17.679688 -3.382812 16.234375 -1.96875 C 14.785156 -0.5625 12.789062 0.140625 10.25 0.140625 C 7.71875 0.140625 5.722656 -0.5625 4.265625 -1.96875 C 2.816406 -3.382812 2.09375 -5.316406 2.09375 -7.765625 L 2.09375 -18.75 L 5.25 -18.75 L 5.25 -7.765625 C 5.25 -6.191406 5.695312 -4.953125 6.59375 -4.046875 C 7.5 -3.148438 8.734375 -2.703125 10.296875 -2.703125 C 11.828125 -2.703125 13.035156 -3.148438 13.921875 -4.046875 C 14.804688 -4.941406 15.25 -6.179688 15.25 -7.765625 L 15.25 -18.75 Z M 18.40625 -18.75 "/></g></g></g><g fill="#f5f5f3" fill-opacity="1"><g transform="translate(682.55405, 479.179868)"><g><path d="M 2.46875 -18.75 L 10.15625 -18.75 C 12.957031 -18.75 15.273438 -17.863281 17.109375 -16.09375 C 18.941406 -14.332031 19.859375 -12.09375 19.859375 -9.375 C 19.859375 -6.664062 18.9375 -4.425781 17.09375 -2.65625 C 15.257812 -0.882812 12.921875 0 10.078125 0 L 2.46875 0 Z M 5.625 -15.921875 L 5.625 -2.84375 L 10.234375 -2.84375 C 12.078125 -2.84375 13.609375 -3.453125 14.828125 -4.671875 C 16.054688 -5.898438 16.671875 -7.457031 16.671875 -9.34375 C 16.671875 -11.238281 16.039062 -12.804688 14.78125 -14.046875 C 13.519531 -15.296875 11.960938 -15.921875 10.109375 -15.921875 Z M 5.625 -15.921875 "/></g></g></g><g fill="#f5f5f3" fill-opacity="1"><g transform="translate(714.032327, 479.179868)"><g><path d="M 2.46875 -18.75 L 10.15625 -18.75 C 12.957031 -18.75 15.273438 -17.863281 17.109375 -16.09375 C 18.941406 -14.332031 19.859375 -12.09375 19.859375 -9.375 C 19.859375 -6.664062 18.9375 -4.425781 17.09375 -2.65625 C 15.257812 -0.882812 12.921875 0 10.078125 0 L 2.46875 0 Z M 5.625 -15.921875 L 5.625 -2.84375 L 10.234375 -2.84375 C 12.078125 -2.84375 13.609375 -3.453125 14.828125 -4.671875 C 16.054688 -5.898438 16.671875 -7.457031 16.671875 -9.34375 C 16.671875 -11.238281 16.039062 -12.804688 14.78125 -14.046875 C 13.519531 -15.296875 11.960938 -15.921875 10.109375 -15.921875 Z M 5.625 -15.921875 "/></g></g></g><g fill="#f5f5f3" fill-opacity="1"><g transform="translate(745.510627, 479.179868)"><g><path d="M 5.625 0 L 2.46875 0 L 2.46875 -18.75 L 5.625 -18.75 Z M 5.625 0 "/></g></g></g><g fill="#f5f5f3" fill-opacity="1"><g transform="translate(764.31771, 479.179868)"><g><path d="M 18.734375 0 L 15.625 0 L 5.625 -13.453125 L 5.625 0 L 2.46875 0 L 2.46875 -18.75 L 5.578125 -18.75 L 15.625 -5.28125 L 15.625 -18.75 L 18.734375 -18.75 Z M 18.734375 0 "/></g></g></g></svg>